<?xml version="1.0" encoding="UTF-8"?><svg id="a" xmlns="http://www.w3.org/2000/svg" xmlns:xlink="http://www.w3.org/1999/xlink" viewBox="0 0 1328.58 939.39"><defs><style>.h{fill:url(#e);}.i{fill:url(#d);}.j{fill:url(#g);}.k{fill:url(#f);}.l{fill:url(#c);}.m{fill:url(#b);}.n{fill:#045470;}.o{fill:#5097ae;}</style><radialGradient id="b" cx="1627.61" cy="1590.99" fx="1627.61" fy="1590.99" r="1.56" gradientTransform="translate(-225295.94 -70190.94) rotate(74.1) scale(79.78 -124.7)" gradientUnits="userSpaceOnUse"><stop offset=".43" stop-color="#34595b"/><stop offset=".79" stop-color="#3f8e94"/></radialGradient><linearGradient id="c" x1="1044.26" y1="2547.55" x2="1231.4" y2="2687.01" gradientTransform="translate(0 2933.44) scale(1 -1)" gradientUnits="userSpaceOnUse"><stop offset="0" stop-color="#1e6778"/><stop offset=".71" stop-color="#2790a9"/></linearGradient><radialGradient id="d" cx="1636.29" cy="1595.87" fx="1636.29" fy="1595.87" r="1.56" gradientTransform="translate(-554664.33 154811.13) rotate(45.1) scale(172.84 -315.02)" gradientUnits="userSpaceOnUse"><stop offset=".11" stop-color="#1d5b69"/><stop offset=".32" stop-color="#2790a9"/></radialGradient><linearGradient id="e" x1="1031.96" y1="2627.72" x2="1118.19" y2="2718.76" gradientTransform="translate(0 2933.44) scale(1 -1)" gradientUnits="userSpaceOnUse"><stop offset="0" stop-color="#38827e"/><stop offset="1" stop-color="#91cfcd"/></linearGradient><radialGradient id="f" cx="1633.29" cy="1603.48" fx="1633.29" fy="1603.48" r="1.56" gradientTransform="translate(-156358.48 206304.46) rotate(4.36) scale(86.5 -135.58)" gradientUnits="userSpaceOnUse"><stop offset="0" stop-color="#0c3836"/><stop offset=".66" stop-color="#91cfcd" stop-opacity="0"/></radialGradient><radialGradient id="g" cx="1629.63" cy="1597.6" fx="1629.63" fy="1597.6" r="1.56" gradientTransform="translate(-208029.29 -23699.51) rotate(45.2) scale(100.76 -82.28)" gradientUnits="userSpaceOnUse"><stop offset="0" stop-color="#d1daad"/><stop offset="1" stop-color="#b7c487"/></radialGradient></defs><g><path class="n" d="M250.28,370.82c-2.22,3.9-5.21,6.99-8.95,9.24-3.75,2.25-8.34,3.38-13.77,3.38-2.84,0-5.32-.48-7.42-1.44-2.11-.96-3.84-2.3-5.21-4.03-1.34-1.72-2.35-3.81-3-6.22-.66-2.41-.97-5.1-.97-8.07v-59.63h-14.65v-4.18c4.69,0,8.57-.85,11.65-2.55,3.06-1.7,5.54-4.01,7.51-6.95,1.94-2.93,3.46-6.34,4.59-10.21,1.12-3.86,2.07-7.92,2.88-12.18h4.81v28.94h19.01v7.14h-19.01v59.63c0,2.55,.88,4.69,2.65,6.45,1.76,1.77,3.93,2.65,6.55,2.65,1.9,0,3.63-.47,5.18-1.4,1.55-.91,2.87-2.06,4-3.43l4.16,2.87Z"/><path class="n" d="M272.18,312.39c5.06-5.81,10.37-10.13,15.9-12.97,5.55-2.85,11.18-4.28,16.94-4.28,2.96,0,5.72,.69,8.29,2.05,2.58,1.36,4.8,3.21,6.72,5.53,1.92,2.31,3.44,5.03,4.56,8.16,1.11,3.12,1.68,6.44,1.68,9.98v60.74h-16.81v-57.97c0-5.63-1.23-9.86-3.75-12.72-2.5-2.83-5.75-4.26-9.78-4.26-1.8,0-3.68,.31-5.66,.89-1.99,.57-4,1.4-6.02,2.44-2.05,1.07-4.09,2.33-6.14,3.81-2.02,1.49-4.01,3.15-5.92,5.01v62.79h-16.79v-123.27l11.97-4.73h4.82v58.8Z"/><path class="n" d="M393.14,324.08c0-3.21-.58-6.19-1.72-8.94-1.14-2.77-2.69-5.16-4.69-7.19-1.98-2.05-4.28-3.64-6.95-4.78-2.65-1.15-5.5-1.72-8.53-1.72-2.53,0-4.97,.57-7.28,1.72-2.32,1.14-4.38,2.74-6.18,4.78-1.78,2.03-3.29,4.42-4.5,7.19-1.21,2.74-1.93,5.73-2.2,8.94h42.05Zm-16.79,59.36c-5.77,0-11.14-1.06-16.16-3.2-5-2.13-9.39-5.05-13.15-8.76-3.79-3.71-6.74-8.07-8.92-13.04-2.15-4.97-3.25-10.31-3.25-16,0-6.81,1-13.09,2.96-18.88,1.99-5.78,4.81-10.77,8.45-14.97,3.64-4.2,8.03-7.51,13.13-9.88,5.1-2.37,10.79-3.58,17.1-3.58,5.55,0,10.65,.98,15.26,2.93,4.61,1.94,8.57,4.56,11.89,7.88,3.28,3.31,5.88,7.1,7.73,11.41,1.84,4.29,2.77,8.8,2.77,13.49h-63.17c0,5.69,.73,10.96,2.18,15.81,1.45,4.87,3.52,9.04,6.18,12.56,2.65,3.54,5.8,6.3,9.44,8.31,3.66,2.02,7.66,3.02,12.08,3.02,3.64,0,7.15-.58,10.52-1.77,3.37-1.18,6.44-2.74,9.18-4.69,2.75-1.95,5.09-4.15,7.01-6.63,1.9-2.48,3.26-5.03,4.07-7.7l4.74,2.13c-1.25,4.33-3.19,8.42-5.86,12.24-2.65,3.84-5.79,7.18-9.41,10.02-3.61,2.86-7.56,5.1-11.82,6.79-4.27,1.66-8.59,2.49-12.98,2.49"/><path class="n" d="M104.78,450.77c9.95-11.41,20.37-19.91,31.24-25.5,10.86-5.59,21.95-8.39,33.26-8.39,5.8,0,11.24,1.35,16.28,4.01,5.05,2.68,9.45,6.31,13.2,10.85,3.78,4.54,6.75,9.89,8.93,16.03,2.19,6.14,3.27,12.66,3.27,19.58v119.29h-32.96v-113.83c0-11.05-2.45-19.36-7.38-24.95-4.89-5.58-11.31-8.38-19.2-8.38-3.53,0-7.25,.58-11.11,1.72-3.9,1.16-7.85,2.77-11.86,4.84-4,2.05-8,4.55-12.02,7.44-4.02,2.93-7.9,6.19-11.65,9.84v123.3h-32.96v-213.83l23.49-9.27h9.47v87.23Z"/><path class="n" d="M338.29,473.72c0-6.31-1.14-12.17-3.38-17.56-2.24-5.41-5.31-10.11-9.2-14.13-3.88-4-8.45-7.12-13.65-9.37-5.23-2.27-10.82-3.37-16.75-3.37-4.99,0-9.75,1.11-14.33,3.37-4.53,2.25-8.57,5.37-12.07,9.37-3.54,4.02-6.49,8.72-8.86,14.13-2.35,5.39-3.81,11.25-4.26,17.56h82.5Zm-32.96,116.56c-11.31,0-21.86-2.08-31.71-6.28-9.82-4.19-18.46-9.92-25.85-17.2-7.41-7.29-13.23-15.82-17.49-25.6-4.25-9.77-6.38-20.23-6.38-31.43,0-13.35,1.96-25.7,5.85-37.06,3.86-11.36,9.39-21.16,16.57-29.42,7.15-8.24,15.74-14.72,25.77-19.41,10.02-4.66,21.23-7.01,33.59-7.01,10.94,0,20.92,1.92,29.97,5.75,9.04,3.81,16.8,8.98,23.33,15.47,6.49,6.51,11.56,13.97,15.2,22.4,3.65,8.45,5.46,17.26,5.46,26.5h-124.03c0,11.18,1.41,21.53,4.28,31.06,2.85,9.52,6.9,17.76,12.1,24.67,5.23,6.92,11.42,12.37,18.58,16.3,7.16,3.95,15.06,5.92,23.68,5.92,7.16,0,14.06-1.17,20.67-3.47,6.62-2.29,12.64-5.37,18.06-9.19,5.38-3.82,9.96-8.17,13.73-13.01,3.76-4.86,6.44-9.92,8.01-15.12l9.29,4.19c-2.43,8.5-6.27,16.52-11.46,24.05-5.23,7.53-11.39,14.08-18.49,19.66-7.12,5.59-14.83,10.02-23.22,13.31-8.38,3.25-16.89,4.9-25.5,4.9"/><path class="n" d="M491.64,489.76c-7.16,2.18-14.63,4.94-22.4,8.27-7.78,3.36-14.96,7.16-21.5,11.39-6.56,4.26-11.96,8.98-16.2,14.12-4.25,5.16-6.37,10.64-6.37,16.49,0,4.02,.75,7.82,2.26,11.47,1.52,3.64,3.53,6.82,6,9.56,2.49,2.74,5.34,4.91,8.56,6.56,3.23,1.64,6.59,2.46,10.11,2.46,3.77,0,7.32-.49,10.65-1.46,3.34-.96,6.6-2.28,9.76-3.91,3.16-1.65,6.3-3.59,9.45-5.84,3.18-2.24,6.38-4.59,9.66-7v-62.11Zm33.13,96.88h-33.13v-22.75c-3.87,3.02-7.73,6.11-11.46,9.19-3.78,3.11-7.85,5.94-12.22,8.47-4.37,2.55-9.22,4.65-14.57,6.28-5.33,1.64-11.52,2.46-18.57,2.46-6.57,0-12.49-1.06-17.77-3.18-5.26-2.12-9.74-5.04-13.37-8.73-3.64-3.7-6.46-8.11-8.47-13.22-2-5.09-3.01-10.55-3.01-16.39,0-7.16,1.43-13.59,4.29-19.29,2.84-5.72,6.72-10.86,11.64-15.39,4.93-4.56,10.65-8.6,17.13-12.12,6.49-3.53,13.46-6.68,20.85-9.47,7.41-2.8,15.01-5.25,22.77-7.38,7.77-2.14,15.37-4.18,22.77-6.1v-10.38c0-7.53-.76-13.87-2.28-19.03-1.52-5.16-3.67-9.36-6.45-12.57-2.81-3.21-6.17-5.53-10.11-6.93-3.94-1.39-8.41-2.08-13.38-2.08-5.6,0-10.14,.72-13.66,2.2-3.53,1.44-6.3,3.36-8.3,5.7-2.01,2.38-3.37,5.06-4.09,8.01-.74,3-1.1,6.06-1.1,9.23,0,2.89-.24,5.7-.71,8.36-.5,2.68-1.34,5.03-2.54,7.11-1.24,2.07-2.9,3.71-5.03,4.92-2.14,1.19-4.83,1.81-8.1,1.81-5.09,0-9.27-1.84-12.49-5.55-3.21-3.71-4.82-8.34-4.82-13.93s1.8-10.6,5.38-15.4c3.59-4.8,8.45-8.94,14.56-12.39,6.16-3.45,13.29-6.19,21.42-8.2,8.14-2.02,16.69-3.02,25.69-3.02,10.92,0,20.17,1.1,27.69,3.19,7.54,2.13,13.62,5.12,18.29,8.94,4.66,3.82,8.04,8.47,10.11,13.93,2.08,5.46,3.08,11.55,3.08,18.22v125.48Z"/></g><polygon class="n" points="583.61 586.64 550.64 586.64 550.64 372.81 574.14 363.54 583.61 363.54 583.61 586.64"/><g><path class="n" d="M699.89,565.51c-4.37,7.67-10.24,13.69-17.57,18.13-7.35,4.43-16.35,6.64-27.06,6.64-5.57,0-10.44-.94-14.56-2.84-4.12-1.87-7.54-4.5-10.22-7.92-2.67-3.38-4.65-7.45-5.9-12.19-1.27-4.72-1.92-10.02-1.92-15.84v-117.11h-28.78v-8.2c9.23,0,16.84-1.67,22.87-5,6.02-3.34,10.92-7.9,14.74-13.68,3.84-5.76,6.85-12.43,9.01-20.02,2.2-7.6,4.06-15.57,5.65-23.95h9.47v56.81h37.34v14.04h-37.34v117.11c0,4.98,1.74,9.19,5.19,12.66,3.47,3.46,7.75,5.19,12.87,5.19,3.76,0,7.15-.92,10.19-2.72,3.02-1.82,5.65-4.08,7.83-6.76l8.2,5.64Z"/><path class="n" d="M745.82,450.77c9.94-11.41,20.37-19.91,31.24-25.5,10.86-5.59,21.94-8.39,33.23-8.39,5.84,0,11.26,1.35,16.31,4.01,5.04,2.68,9.43,6.31,13.19,10.85,3.78,4.54,6.76,9.89,8.94,16.03,2.2,6.14,3.28,12.66,3.28,19.58v119.29h-32.97v-113.83c0-11.05-2.46-19.36-7.38-24.95-4.91-5.58-11.31-8.38-19.22-8.38-3.51,0-7.22,.58-11.09,1.72-3.88,1.16-7.85,2.77-11.86,4.84-4,2.05-8,4.55-12.02,7.44-4,2.93-7.88,6.19-11.65,9.84v123.3h-32.96v-213.83l23.48-9.27h9.48v87.23Z"/><path class="n" d="M852.39,420.55h37.52l64.28,120.01,52.47-120.01h17.48l-84.7,195.24c-3.63,8.13-7.79,15.18-12.47,21.14-4.66,5.94-9.59,10.89-14.75,14.85-5.16,3.94-10.5,6.85-16.03,8.74-5.53,1.86-10.89,2.82-16.11,2.82-3.65,0-7.08-.5-10.29-1.45-3.24-.99-6.04-2.34-8.48-4.02-2.41-1.7-4.34-3.74-5.75-6.1-1.38-2.37-2.1-4.95-2.1-7.75,0-2.31,.46-4.57,1.39-6.72,.89-2.21,2.2-4.12,3.89-5.75,1.71-1.65,3.78-2.98,6.21-4.01,2.43-1.02,5.16-1.54,8.2-1.54,3.52,0,6.29,.39,8.3,1.18,1.99,.8,3.81,1.68,5.44,2.65,1.66,.96,3.37,1.86,5.2,2.64,1.82,.8,4.37,1.19,7.65,1.19s6.43-.98,9.11-2.93c2.65-1.94,5.06-4.39,7.2-7.37,2.11-2.98,4.03-6.23,5.72-9.75,1.71-3.51,3.24-6.81,4.57-9.83l11.1-24.75-85.06-158.47Z"/><path class="o" d="M251.74,658.44c7.88-9.04,16.11-15.78,24.74-20.2,8.6-4.41,17.39-6.63,26.33-6.63,4.62,0,8.91,1.07,12.9,3.16,4,2.14,7.49,5,10.45,8.6,3,3.61,5.37,7.83,7.1,12.7,1.73,4.87,2.59,10.02,2.59,15.51v94.49h-26.11v-90.16c0-8.76-1.93-15.35-5.85-19.78-3.88-4.41-8.96-6.63-15.21-6.63-2.78,0-5.73,.45-8.79,1.36-3.09,.91-6.23,2.18-9.39,3.82-3.18,1.64-6.35,3.62-9.53,5.91-3.17,2.32-6.26,4.9-9.22,7.79v97.67h-26.13v-169.38l18.62-7.35h7.51v69.1Z"/><path class="o" d="M425.99,759.14c5.17,0,9.92-1.31,14.18-3.96,4.28-2.65,8-6.22,11.13-10.67,3.12-4.48,5.56-9.67,7.3-15.59,1.71-5.92,2.59-12.2,2.59-18.84,0-9.51-.84-18.46-2.46-26.82-1.64-8.37-4.28-15.66-7.94-21.86-3.66-6.21-8.45-11.09-14.35-14.65-5.93-3.56-13.16-5.34-21.73-5.34-4.42,0-8.67,1.27-12.77,3.82-4.09,2.56-7.72,6.05-10.91,10.47-3.15,4.43-5.67,9.56-7.55,15.44-1.9,5.86-2.81,12.12-2.81,18.76,0,9.61,1.02,18.64,3.02,27.04,2.04,8.45,4.98,15.76,8.87,22.02,3.9,6.25,8.66,11.18,14.3,14.78,5.61,3.6,11.99,5.41,19.13,5.41m-4.92,9.8c-10.1,0-19.42-1.74-27.91-5.25-8.52-3.51-15.88-8.32-22.08-14.43-6.2-6.12-11.04-13.22-14.49-21.34-3.48-8.15-5.22-16.82-5.22-26.05,0-9.72,1.74-18.83,5.22-27.35,3.45-8.5,8.29-15.92,14.49-22.28,6.21-6.35,13.56-11.38,22.08-15.09,8.49-3.71,17.82-5.56,27.91-5.56s19.26,1.68,27.77,5.06c8.51,3.37,15.86,7.99,22.08,13.85,6.2,5.86,11.02,12.73,14.47,20.56,3.49,7.84,5.22,16.28,5.22,25.32,0,9.99-1.74,19.4-5.22,28.21-3.46,8.79-8.27,16.47-14.47,23.02-6.22,6.54-13.58,11.74-22.08,15.59-8.51,3.84-17.76,5.75-27.77,5.75"/><path class="o" d="M507.87,634.33h26.13v24.69c3.35-3.66,7.13-7.15,11.31-10.46,4.19-3.34,8.51-6.23,12.98-8.74,4.5-2.49,8.98-4.49,13.53-5.97,4.5-1.49,8.73-2.24,12.68-2.24s7.78,.69,11.82,2.08c4.06,1.41,7.74,3.35,11.11,5.84,3.37,2.5,6.29,5.45,8.72,8.81,2.47,3.38,4.08,7.07,4.84,11.11,2.22-3.85,5.22-7.46,9.02-10.8,3.8-3.37,8.05-6.32,12.68-8.82,4.69-2.49,9.6-4.49,14.75-5.97,5.11-1.49,10.2-2.24,15.2-2.24s9.55,1.11,13.91,3.32c4.4,2.2,8.18,5.19,11.48,8.95,3.27,3.74,5.86,8.11,7.8,13.12,1.92,4.99,2.88,10.34,2.88,16.01v93.05h-26.25v-89.29c0-3.77-.62-7.29-1.88-10.55-1.25-3.26-2.96-6.16-5.13-8.66-2.16-2.5-4.67-4.47-7.51-5.91-2.83-1.43-5.82-2.16-9.01-2.16-3.56,0-7.2,.47-10.96,1.43-3.76,.96-7.31,2.3-10.68,4.04-3.37,1.74-6.45,3.74-9.23,6-2.79,2.26-5,4.69-6.64,7.28v97.82h-26.11v-89.29c0-3.77-.67-7.29-1.94-10.55-1.31-3.26-3.04-6.16-5.22-8.66-2.15-2.5-4.66-4.47-7.56-5.91-2.88-1.43-5.91-2.16-9.1-2.16s-6.69,.49-10.24,1.51c-3.56,1-7.04,2.4-10.45,4.12-3.42,1.73-6.57,3.73-9.48,5.98-2.86,2.27-5.32,4.64-7.33,7.14v97.82h-26.13v-131.73Z"/><path class="o" d="M815.79,676.63c0-5.02-.9-9.65-2.68-13.91-1.8-4.3-4.2-8.03-7.3-11.21-3.06-3.17-6.68-5.64-10.8-7.41-4.14-1.8-8.59-2.69-13.29-2.69-3.95,0-7.7,.89-11.33,2.69-3.61,1.77-6.79,4.24-9.59,7.41-2.8,3.18-5.13,6.91-7.01,11.21-1.85,4.26-2.99,8.89-3.38,13.91h65.37Zm-26.12,92.32c-8.97,0-17.3-1.65-25.11-4.96-7.81-3.31-14.62-7.88-20.48-13.63-5.88-5.78-10.5-12.54-13.87-20.28-3.35-7.74-5.06-16.03-5.06-24.89,0-10.58,1.55-20.36,4.62-29.36,3.06-9,7.44-16.76,13.13-23.31,5.69-6.53,12.48-11.66,20.43-15.37,7.92-3.71,16.81-5.56,26.61-5.56,8.65,0,16.56,1.52,23.74,4.56,7.15,3.02,13.33,7.11,18.46,12.24,5.16,5.16,9.17,11.06,12.05,17.74,2.9,6.7,4.34,13.7,4.34,21.01h-98.26c0,8.86,1.11,17.06,3.38,24.6,2.26,7.54,5.45,14.06,9.59,19.54,4.14,5.48,9.04,9.8,14.72,12.91,5.66,3.14,11.92,4.69,18.76,4.69,5.66,0,11.14-.92,16.38-2.75,5.25-1.8,10.01-4.25,14.3-7.27,4.26-3.04,7.88-6.47,10.87-10.31,2.99-3.84,5.1-7.85,6.36-11.99l7.35,3.33c-1.92,6.72-4.95,13.09-9.07,19.05-4.13,5.96-9.01,11.16-14.66,15.59-5.64,4.4-11.74,7.92-18.38,10.53-6.63,2.59-13.39,3.87-20.2,3.87"/><g><path class="m" d="M1027.7,374.52s61.74-51.42,134.84-49.01c97.87,3.13,94.2,56.41,94.2,56.41,0,0,3.55,53.53-94.33,50.41-73.1-2.41-134.72-57.81-134.72-57.81Z"/><path class="l" d="M1031.02,372.84s27.61-73.05,85.97-104.3c78.16-41.88,97.06,6.11,97.06,6.11,0,0,24.57,45.06-53.59,86.94-58.47,31.35-129.44,11.25-129.44,11.25Z"/><path class="i" d="M1034.12,369.11s30.01-79.4,93.45-113.37c84.96-45.52,105.51,6.64,105.51,6.64,0,0,26.71,48.98-58.26,94.5-63.55,34.08-140.7,12.23-140.7,12.23Z"/><path class="h" d="M1030.09,378.25s-26.61-72.93-.4-138.58c35.18-87.87,82.65-67.08,82.65-67.08,0,0,50.05,14.3,14.87,102.17-26.21,65.65-97.12,103.49-97.12,103.49Z"/><path class="k" d="M1030.09,378.25s-26.61-72.93-.4-138.58c35.18-87.87,82.65-67.08,82.65-67.08,0,0,50.05,14.3,14.87,102.17-26.21,65.65-97.12,103.49-97.12,103.49Z"/><path class="j" d="M1030.5,377.86s41.43-69.24,24.76-134.74c-22.22-87.61-76.82-70.35-76.82-70.35,0,0-56.22,10.79-34,98.39,16.52,65.45,85.91,106.64,85.91,106.64"/></g></g></svg>